/* XPM */
static char *_f79fbb194414e9d9c31b884d8737ec9l6RuPtB8YQd8bJhE[] = {
/* columns rows colors chars-per-pixel */
"50 50 156 2 ",
"   c None",
".  c #491B4D",
"X  c #5A1F5E",
"o  c #612366",
"O  c #64246A",
"+  c #68256E",
"@  c #6C2772",
"#  c #6F2876",
"$  c #762A7C",
"%  c #FF6666",
"&  c #FF7575",
"*  c #FF7B7B",
"=  c #792B80",
"-  c #8C3293",
";  c #95359D",
":  c #9D38A5",
">  c #AE3EB8",
",  c #B240BB",
"<  c #F45A84",
"1  c #F45D8B",
"2  c #F96280",
"3  c #F7618B",
"4  c #DC54BF",
"5  c #E153AE",
"6  c #DE65B9",
"7  c #F16EBD",
"8  c #BB43C4",
"9  c #BF45CA",
"0  c #C346CD",
"q  c #D64AC6",
"w  c #D44CCC",
"e  c #C546D0",
"r  c #CB48D5",
"t  c #CF4ADA",
"y  c #D14EDB",
"u  c #D454DD",
"i  c #D65CDF",
"p  c #D85BDF",
"a  c #CF67D1",
"s  c #D46AD5",
"d  c #D661DF",
"f  c #D66BD8",
"g  c #DA6DDA",
"h  c #E168C3",
"j  c #E970DF",
"k  c #DA5DE1",
"l  c #D665E0",
"z  c #DE62E3",
"x  c #D96EE2",
"c  c #DD74E5",
"v  c #E065E5",
"b  c #E36BE7",
"n  c #E473E5",
"m  c #E573E8",
"M  c #EA75EB",
"N  c #E47CE9",
"B  c #EB7BEC",
"V  c #FF9595",
"C  c #E784EA",
"Z  c #EC84ED",
"A  c #ED8CEE",
"S  c #EF91EF",
"D  c #EF8EF0",
"F  c #F08DF0",
"G  c #EF94F0",
"H  c #EF98F1",
"J  c #F096F1",
"K  c #F19BF2",
"L  c #ECA0EF",
"P  c #F2A6E5",
"I  c #EDA2F1",
"U  c #F3A3F4",
"Y  c #F6AFF7",
"T  c #F5ADF6",
"R  c #F4AAF5",
"E  c #F5B1F5",
"W  c #F4B0F5",
"Q  c #F5B1F6",
"!  c #F5B0F6",
"~  c #F5B2F6",
"^  c #F5B3F6",
"/  c #F6B3F6",
"(  c #F6B1F6",
")  c #F3B5F4",
"_  c #F6B4F6",
"`  c #F6B5F7",
"'  c #F6B6F7",
"]  c #F7B6F7",
"[  c #F7B7F7",
"{  c #F0B1F3",
"}  c #F7BBF7",
"|  c #F5BAF6",
" . c #F5BBF6",
".. c #F7B1F8",
"X. c #F7B2F8",
"o. c #F7B3F8",
"O. c #F7B5F8",
"+. c #F7B4F8",
"@. c #F7B6F8",
"#. c #F8B2F8",
"$. c #F8B5F9",
"%. c #F9B7F9",
"&. c #F8B5FA",
"*. c #F8B6FA",
"=. c #F7B8F8",
"-. c #F7B9F8",
";. c #F7BAF8",
":. c #F7BDF9",
">. c #F8B9F8",
",. c #F8BBF8",
"<. c #F8BBF9",
"1. c #F9BAFA",
"2. c #F8BCF9",
"3. c #F8BDF9",
"4. c #F9BEF9",
"5. c #F9BFF9",
"6. c #F9BDFA",
"7. c #F9BEFA",
"8. c #F9BFFA",
"9. c #F8BFFA",
"0. c #F9C0FA",
"q. c #F9C1FA",
"w. c #FAC1FA",
"e. c #FAC1FB",
"r. c #FAC0FB",
"t. c #F9C3FA",
"y. c #F9C2FA",
"u. c #FAC2FB",
"i. c #F9C0F9",
"p. c #FAC4FB",
"a. c #FAC5FB",
"s. c #FAC7FB",
"d. c #FAC7FA",
"f. c #F9C5FA",
"g. c #FAC3FC",
"h. c #FAC9FB",
"j. c #FACBFB",
"k. c #FACEFB",
"l. c #FBCAFC",
"z. c #FBCCFC",
"x. c #FBCFFC",
"c. c #FBD1FC",
"v. c #FBD0FC",
"b. c #FBD2FC",
"n. c #FCD2FD",
"m. c #FBD4FC",
"M. c #FCD6FD",
"N. c #FCD7FD",
"B. c #FCD5FD",
"V. c #FCD8FD",
"C. c #FCDAFD",
"Z. c #FCDDFD",
"A. c #FDDFFD",
"S. c #FDDEFE",
"D. c #FDE1FE",
"F. c #FDE2FE",
/* pixels */
"                                                                                                    ",
"                                                                                                    ",
"                                                                                                    ",
"                                                                                                    ",
"                                                                                                    ",
"                                                                                                    ",
"                                                                                                    ",
"                                            1.g.a.a.j.a.1.                                          ",
"                        #.%.#.*.        #.%.6.t.g.x.D.D.D.m.6.      / %.@.#.#.                      ",
"                    6.6.Y K K K K R Y #.T R %.6.g.a.Z.D.D.D.x.6.T U K K K R *.7.                    ",
"                  p.a.6.#.R U K K K #.R K R #.6.t.6.p.b.M.M.v.v.%.J K K R R *.e.a.                  ",
"                g.C.a.t.%.R U U K Y R K K R R %.1.,.,.6.6.6.h.D.p.U K U U Y 7.e.v.m.                ",
"                Z.D.j.6.@.U K K J Y J K U R R R / ` ` ` | | 1.t.1.T J K K R 6.6.C.D.x.              ",
"              t.D.Z.6.-.T K J A J J J K K U K K K U R / / T / ] / K D G K U ` 6.j.D.M.              ",
"              t.M.t.-./ U G S B K J J K K K K K S J S K K K U U K S A Z S J T ` 6.n.x.-.            ",
"              t.C.6.` T S S Z M K J J J H S S S S S S S S S S S S S S B S S K / | p.C.:.            ",
"              t.z.| T K S S M M F B B M M M M B Z A J A S J F S F F B M Z J S U / i.x.              ",
"              %./ / K S S Z M M B B M M M M M M M M B B Z A A Z Z B M M M F S S U ` %.              ",
"                K J S S Z M M M Z | Z M M M M M M M M M M M M M M M M M M B A S S K U               ",
"                  S A Z M M M M B ` D M M M M M M M M M M M M M M B M M M M B A S S                 ",
"                  A M M M M M K @.Z M M M M M M M M M M M M M M Z K K Z M M M M B                   ",
"                  @.K J H R @.-.@.T A M M M M M M M M M M M Z K U U K K J Z Z Z K                   ",
"                #.R / ` -.-.` @./ / W R H Z Z B B B Z Z J K K K K K K K J J G S K %.                ",
"                X.J / ` ` ` ` W / T T T R U H K K K J J J K K K K K K K K J G S S #.                ",
"                R J K R / / W T { R I H H S S S J S S H S S S H H J K H H H J J S U                 ",
"                K S J K K H N m C G G G S S C C C C C C A S S S A C n N Z Z Z A F K                 ",
"              X.S F J J x y t t t k c c x x x x x x x x x d d i u y t t t z M M M M U               ",
"              R J F F x y y t t t t y f x x x x x x l u t t t t t t t t t t k M M M F               ",
"              K G G D y t t t t t t t k x x x x d y t t t t t t t t t t t t y B F M Z               ",
"              Z Z G N t 9 = O O + > t u c d u y t t t t t t t t r $ + O @ ; t I  .H B               ",
"              f M M m t 8 t t t t 9 r t y t t t t t t t t t t t 0 t t t t 8 r L | U g               ",
"                M M c t t t t t t t t t t t t t t t t t t t t t t t t t t t t { | S                 ",
"                n M b 4 w t t t t t t t t $ O - . X : @ # t t t t t t t y w h K L n                 ",
"                  7 V * % 5 t t t t t t t t > ; 0 8 - : t t t t t t t t 5 V & % 7                   ",
"                  6 3 & 1 q t t t t t t t t t t t t y t t t t t t t t t q < 2 3 h                   ",
"                    f M M z t t t t t t t t t t t t t t t t t t t t t y z M M g                     ",
"                        b M M v u y y y t y t t t t y y t t y t y y v M M M                         ",
"                            n M M m v v k u u u y y y y u k v b M M M n                             ",
"                                a n M M M M M M M M M M M M M M b s                                 ",
"                                            s f f f f s                                             ",
"                                                                                                    ",
"                                                                                                    ",
"                                                                                                    ",
"                                                                                                    ",
"                                                                                                    ",
"                                                                                                    ",
"                                                                                                    ",
"                                                                                                    ",
"                                                                                                    ",
"                                                                                                    "
};
