/* XPM */
static char *_6544c7f346d4ee8e31bc3ea458d4414a7mjrAr1a3hVgPCr[] = {
/* columns rows colors chars-per-pixel */
"50 50 180 2 ",
"   c None",
".  c #050402",
"X  c #0A0603",
"o  c #0D0905",
"O  c #0C0B0B",
"+  c #130C05",
"@  c #1A0F06",
"#  c #120E0A",
"$  c #1D1107",
"%  c #14110D",
"&  c #1C130A",
"*  c #151413",
"=  c #191615",
"-  c #1B1916",
";  c #1C1B1B",
":  c #221307",
">  c #22150A",
",  c #291709",
"<  c #26190C",
"1  c #2B1C0D",
"2  c #311E0C",
"3  c #251C13",
"4  c #2C1E11",
"5  c #211E1C",
"6  c #301F10",
"7  c #33210F",
"8  c #3C230E",
"9  c #2D2113",
"0  c #22201E",
"q  c #28231D",
"w  c #332312",
"e  c #3A2613",
"r  c #3C2915",
"t  c #34271B",
"y  c #35291A",
"u  c #3B2C1A",
"i  c #3D301E",
"p  c #252423",
"a  c #282726",
"s  c #2B2927",
"d  c #2C2B2A",
"f  c #312C24",
"g  c #312E2D",
"h  c #34312E",
"j  c #3B342C",
"k  c #302F30",
"l  c #343333",
"z  c #393634",
"x  c #3B3935",
"c  c #3C3B3B",
"v  c #41250E",
"b  c #412715",
"n  c #442C15",
"m  c #4A2E16",
"M  c #442E19",
"N  c #4C3016",
"B  c #46311B",
"V  c #4B331A",
"C  c #4F381B",
"Z  c #52361C",
"A  c #59371A",
"S  c #543A1E",
"D  c #5C3B1C",
"F  c #643D1E",
"G  c #4D3721",
"H  c #4E3B24",
"J  c #563C22",
"K  c #5A3D22",
"L  c #433932",
"P  c #493F36",
"I  c #413E3C",
"U  c #613C24",
"Y  c #5B401F",
"T  c #5D4226",
"R  c #5D4428",
"E  c #4E4235",
"W  c #43413F",
"Q  c #4F453D",
"!  c #524636",
"~  c #51473E",
"^  c #564B3E",
"/  c #5A493C",
"(  c #624424",
")  c #664925",
"_  c #644429",
"`  c #6A442A",
"'  c #644A2C",
"]  c #6B4C2B",
"[  c #704D2D",
"{  c #6D512E",
"}  c #6D5232",
"|  c #725333",
" . c #444342",
".. c #494746",
"X. c #4B4846",
"o. c #4D4B4A",
"O. c #534740",
"+. c #524B43",
"@. c #5A4E43",
"#. c #504E4D",
"$. c #52504E",
"%. c #5E544B",
"&. c #545352",
"*. c #595655",
"=. c #5B5956",
"-. c #5D5B5A",
";. c #605246",
":. c #605348",
">. c #645A52",
",. c #6B5D52",
"<. c #615E5C",
"1. c #656057",
"2. c #63605E",
"3. c #746659",
"4. c #646362",
"5. c #696664",
"6. c #6A6765",
"7. c #6A6767",
"8. c #696664",
"9. c #6B6867",
"0. c #6C6A67",
"q. c #6D6967",
"w. c #6B6966",
"e. c #6A6968",
"r. c #6C6B68",
"t. c #6D6A6A",
"y. c #6E6C6B",
"u. c #6F6E6E",
"i. c #6D6B6B",
"p. c #706D6A",
"a. c #726F6D",
"s. c #726F6D",
"d. c #716E6C",
"f. c #72706E",
"g. c #73716F",
"h. c #74706E",
"j. c #78766F",
"k. c #6F6F70",
"l. c #737171",
"z. c #777573",
"x. c #777574",
"c. c #777675",
"v. c #747372",
"b. c #787472",
"n. c #7A7776",
"m. c #797775",
"M. c #777877",
"N. c #7B7977",
"B. c #7D7A77",
"V. c #7B7875",
"C. c #7B7A79",
"Z. c #7E7B7B",
"A. c #7F7B7C",
"S. c #7E7E7D",
"D. c #7D7B7B",
"F. c #807D7A",
"G. c #817F7D",
"H. c #84827F",
"J. c #84837E",
"K. c #88877E",
"L. c #838282",
"P. c #858281",
"I. c #858382",
"U. c #858683",
"Y. c #878585",
"T. c #858382",
"R. c #898787",
"E. c #888887",
"W. c #8A8984",
"Q. c #8F8E8E",
"!. c #8E8E8F",
"~. c #928F87",
"^. c #918F8C",
"/. c #959393",
"(. c #979594",
"). c #979490",
"_. c #989797",
"`. c #9D9997",
"'. c #9B9998",
"]. c #A09F9E",
/* pixels */
"                                      L I o.&.#...*.=.&.&. .d =                                     ",
"                                I s  .u.v.4.$.m.-./.'.].(.Y.4. .o.I  .                              ",
"                          z X.-.4.4.o.7.4.2. .4...A.A.I.M.k.4.S.!.-.*.z a                           ",
"                      z l o.y.l.u.C...*.-.2. .o.c M.x.F.s.4.W L.M.=.U.E.4.l s                       ",
"                    o.h ; l 4.e.5.7.4.*.9.2.o. . .I.B.C.t.-.W C.2.o.x.U.x.t.=.c 0                   ",
"                z ..o.-.z 0 o.4.-.4.9.4.y.9.<.o. .H.h.f.9.-.-.x.-.o.4.-.o.l.C.u.X.g                 ",
"              h I &.-.k.e.d d &.=.-.0.f.y.m.4...z m.4.l.u.#.4.t.o.$.-. .4.u.L.k.o.c s               ",
"            z l ..&.&.-.e.#.a z &.2.5.=. . .d ; ; #.o.-.-.I o.*.o.=.o.o.y.s.e.<.#.a z c             ",
"          <.I l z c  .#.*.-.l a c  .I z ; % o X X = * = ; ; p d c .. .t.v.4.#.*.I d x l g           ",
"          W I &.x x ..*.=.=...0 5 5 ; * O X o X . = & @ @ & = = - 0 o.i.t.<.&. .l z &.o.s g         ",
"        ..a p c ..o.=.<.4.*.l 0 * O o & & & < $ o H r w w M 2 9 = & s &.&.$. .z d ..h.C...a p       ",
"      W d p a 5 a  .4.i.$.z - O X X $ y e r n 1 + ' Z C V ( m C 9 & & ; z W  .z I u.B.D.5.d l       ",
"      d l #.=. .d d  .&.k * X X o + 6 J n n n 2 o _ Z J S ( N ) u 1 < & % a l l -.S.l.y.4.z p z     ",
"    I l I &.t.8.*. .c a * . . + & < r ' n n n 1 o ' Z K J ( m { C n w 4 o O = I t.s.<.=.#.2.&.l     ",
"    I <.y.<.y.4.<.&.k * O X # > 1 2 r ] n n n < o ' Z K S T m [ J V n r # # * c 4.4.-.4.S.k.#.0 *   ",
"  $.x X.*.4.G.v.i.I = O X # & 1 r r B } M M N < o R C D Z D n ] A V M V > < & a *.G.Y.S.t.*.&.l =   ",
"  I c X.#.&.*.-.-.d O X + < 1 w M m V | V V V , o R V A B J 8 ] D C C J : y 3 - I A.A.t.4.-.*.c * O ",
"  g c X.&.*.=.-.c ; o X & y w n C m M | N M m > o T V J V V 8 ] S N Z K 2 V y & s &.t.7.4.-.&.l ; ; ",
"f p g I #.*.<.*.k % o + 9 B 8 n V A V | Z m n 1 o T V Z n Z 7 ) Z V Z S 8 J G & ; k .... .c a * ; 0 ",
"x p p h l c c z p O o & w H n N M A V | V n n , o R V V n V 1 ( S V Z S v K J 1 & * * * * ; 0 d l ; ",
"c ; ; ; ; p ; p ; o % > y R n n M D V | m b b > o ) n B n M , Y C m N C 8 T R 7 & * * k  .&.-.&.I ; ",
"z p l W ..c z ; % o & < M ' N M M D m | m b b > o R n n n r , Y C M V C v T ' 7 & * a o.v.M.k.4. .* ",
"z W -.2.9.8.=.0 % o < 6 B } C N V D V | N n b > o ) B B r r , S C b M M v _ ) n < & a *.C.i.4.<. .O ",
"c &.=.*.2.d.<.0 o + 1 e S { Z V V F n ` n b m $ X _ N N 8 e : C C n n N n R T b 7 % a &.i.=.*.&.k O ",
"d l h z c .. .* o % 7 r S { C N n D b ` b b n : X _ V V e e : Z N b M C m T T r 6 * 0 c  .z c k ; O ",
"i.9.5.C.S.k.x.; X $ 7 M S ' N n b A b U b B b : o R V V e 6 @ C C n C M 8 T D n e O z A.S.M.k.k.-. .",
" .#.o.o.&.&.&.- o $ w V J ' n n M A r K n V e > o _ V B e e : Z V n S N m T T M r & c -.4.4.-. .c l ",
"..X.o.o.*.t.&.= . & w Z J ' r M m Z r T n B e : + ) B m e w & C B b S Z m Y ( N r & z *.*.-.o.c  .I ",
"c  ...#.<.8.I # . + 1 n b N , 1 1 2 2 m 2 e 2 @ o Z 2 1 1 , + w 2 , b 7 , m m 2 < + k ..#.o. . .o.c ",
"0 k l c c l 0 o o 5 L :.1.3.>.>.>.,.:.:.~ P j 3 O / ! ~ @.~ z / ~ ~ @.@.O.;.@.P f * s x c c o.o.c d ",
"O * * * = * * O O s $.2.V.J.L.I.Y.~.).~.K.F.m.X.= `.^.W.K.j.1.9.p.d.s.s.p.p.7.<. .; - ; ; ; d p ; * ",
"O O * * ; ; = O % q z W ..X.%.8.I l j V.H.+.W s % d. .+.W.*.j h L =.<.I z h z 8.l * = * * * * * * O ",
"* * 0 p d a ; O O * 5 0 p a s I g 0 j g.U. .f % . h 0 W !.e.x 5 * q I ; * * = x q o 0 ; 0 a d d ; O ",
"0 p k c .. .l * . . X + @ + o o o - r. . .&.I . . + I 2.c o.&.q o o o o X o o o X X p z &.4.e.2.o.* ",
"a k l #.-.-. .O . X $ , 1 6 $ @ $ y _.z W &.5.X . $ 2.g.l  .u.! : $ & $ o & , $ @ o d o.5.v.i.2.&.; ",
"a k c #.4.k.c O . * 6 V V J 6 2 9 w 2.u.#.M.2.@ X y j M.<.-.S.! e 7 w 7 $ 7 r e 1 $ d o.-.-.&.&.I * ",
"; a d l o.o.d O . & e M G U u w w 1 s 2.E.2.y & X i 9 l S.S.W i r r u 7 @ w B m e & 0 z c k l z d O ",
"; I  ...&. .d O o & w b V J e 6 7 < + # * ; < & X y & # % - % r e e r 1 $ w r n w % 0  . .c W .. .* ",
"a o.&.&.#.c p O . $ 6 b M G 6 4 6 < & & o & < $ X u 4 & X X + i e 7 r 7 $ w i m 7 & g -.2.-.&.-.#.; ",
"* * 0 p 0 ; * O . & 4 e u B 4 < 6 1 9 u 6 y 6 $ X y 4 < & & & B e 7 y 7 @ w r N w & k  .$.&.o. .z * ",
"* 0 l o. . .l % . $ 4 w r G 1 < 6 < < u 7 i 1 + X t 4 < < < $ B w 7 y 6 @ 9 r b w & h d k c c z p O ",
";  .<.t.4.4.o.O . + < 1 b M 1 < 4 < < y 7 r 4 + X t < & & & @ y w w e 6 + 9 y w 4 & d 0 g k k p * O ",
"p  ...o.$.o.z O . + > < t M < < 4 < & w 1 y 6 @ . 9 < < & < + 9 6 6 w < + 4 w 1 < & a  .4.&. .c d O ",
"= k k c ..c d o . + & > 6 u < > < < < y 1 w 1 + . 9 < < & & + 4 < < w 1 + 9 9 1 < & * c &.I c I I * ",
"l 4.7.k.L.x.&.* . o & > 6 y > > < & & 9 < w < + . 9 & 4 & $ @ 4 < < 6 1 @ 9 9 , < % d 4.E.M.u.k.M.a ",
"k o.*.&.-.<. .* . o @ & 4 w & > < & & 9 < 9 : + . 9 < < $ + + < < < 9 1 $ 9 w < < O a  .2.2.&.#.o.; ",
"k o.2.*.o.*.W % . o & & < 4 & > < & $ w < 7 & o . 4 < < @ + + < > > 1 < $ 9 9 , < + a  .*.4.&.&.o.; ",
"0 c *.o.....l o . o + & > 4 $ > & $ & 9 > w & o . 4 < < + + o < > & < < $ 9 w 1 < % p c o.&.o...z * ",
"* p l l k d 5 O . o @ @ < 1 @ & > > > w & 4 & o . 4 : $ + o + , > $ > > $ 9 w 1 , + a d  .c c I d * ",
"O O O O O * O X . O : @ > 1 @ $ > $ > w $ < $ o . 1 @ @ o @ + 2 1 : > : @ 1 7 1 > + = * = - ; ; = O "
};
