/* XPM */
static char *aef62cbc5dc8437cf5597597b2c80702yhYxfGK2FqDvwdE4[] = {
/* columns rows colors chars-per-pixel */
"50 50 121 2 ",
"   c None",
".  c #010101",
"X  c #080707",
"o  c #0B0B0B",
"O  c #100F0F",
"+  c #11100F",
"@  c #131313",
"#  c #181717",
"$  c #191718",
"%  c #1B1B1B",
"&  c #201F1F",
"*  c #20201F",
"=  c #242323",
"-  c #292726",
";  c #292827",
":  c #2C2B2B",
">  c #302F2E",
",  c #32302E",
"<  c #343333",
"1  c #383736",
"2  c #3A3837",
"3  c #383738",
"4  c #3C3B3B",
"5  c #403F3E",
"6  c #42403F",
"7  c #444343",
"8  c #494746",
"9  c #4A4847",
"0  c #4C4B4A",
"q  c #514E4D",
"w  c #52504F",
"e  c #545352",
"r  c #595756",
"t  c #5B5957",
"y  c #5C5B5A",
"u  c #605E5C",
"i  c #63605E",
"p  c #676565",
"a  c #676665",
"s  c #646261",
"d  c #686563",
"f  c #686564",
"g  c #686664",
"h  c #686665",
"j  c #696765",
"k  c #696767",
"l  c #696666",
"z  c #6A6865",
"x  c #6A6866",
"c  c #6B6866",
"v  c #6A6867",
"b  c #6B6967",
"n  c #6A6867",
"m  c #696768",
"M  c #6D6A68",
"N  c #6D6A69",
"B  c #6D6B69",
"V  c #6E6B68",
"C  c #6C6A6A",
"Z  c #6D6B6A",
"A  c #6F6C69",
"S  c #6F6C6A",
"D  c #6F6D6B",
"F  c #6D6D6C",
"G  c #6F6D6C",
"H  c #6F6D6D",
"J  c #6D6B6A",
"K  c #706D6B",
"L  c #726D6C",
"P  c #716E6C",
"I  c #726F6C",
"U  c #726F6D",
"Y  c #716F6E",
"T  c #706F6F",
"R  c #716F6F",
"E  c #716E6D",
"W  c #73706F",
"Q  c #74726F",
"!  c #74716F",
"~  c #747171",
"^  c #757372",
"/  c #747373",
"(  c #767372",
")  c #757471",
"_  c #767471",
"`  c #767574",
"'  c #777574",
"]  c #777675",
"[  c #757373",
"{  c #797673",
"}  c #797574",
"|  c #797674",
" . c #7A7674",
".. c #797777",
"X. c #7D7977",
"o. c #7C7A78",
"O. c #7D7A78",
"+. c #7C7B79",
"@. c #7E7A79",
"#. c #7E7C79",
"$. c #7D7B7B",
"%. c #807D7C",
"&. c #83817E",
"*. c #82807F",
"=. c #828181",
"-. c #848080",
";. c #848281",
":. c #858281",
">. c #848282",
",. c #878482",
"<. c #878483",
"1. c #858683",
"2. c #858584",
"3. c #848282",
"4. c #898887",
"5. c #8B8B8B",
"6. c #939190",
"7. c #929191",
"8. c #9B9999",
"9. c #9C9B9A",
"0. c #A09E9E",
/* pixels */
"                                        1 6 0 e 0 9 y r e w 5 :                                     ",
"                                1 4 - e H ~ y t ` s 8.9.0.7.=.r 7 0 6                               ",
"                            2 q y a y e j d r 9 s 0 =.%.>.` T y 5.=.y w < -                         ",
"                        : 2 e R H ~ ~ 8 y i y 6 9 7 @.| @.H y 7 7.m i 4.,.e < =                     ",
"                      9 = = 4 j z j M y y g u 9 7 0 ,.@.| j r 7 =.w r +.2.T M e 2                   ",
"                  2 9 q y ; - e s u d d d D M y 9 w &.~ K C r s ~ r e i r t W #.a 7 -               ",
"                < 7 r i ( y = 1 r r u K D H | y 4 7 ~ z K F 8 ~ u 0 r t 7 z K <.z 8 2 -             ",
"              ; 2 0 e w u C 7 - 4 r s g e 7 4 ; % ; e q u t 3 r w 0 r 9 e K M g y 8 = 2 1           ",
"            r 2 < 3 4 7 e t r ; : 4 8 4 < % O . . o @ o % # $ = > 4 9 9 R ( u w r 3 : 4 < ;         ",
"          r 4 8 q 1 4 0 t y r 4 & % % % o . . . . . . . . . X o O % = t M j y q 5 > 4 r 5 : :       ",
"          5 = ; 6 9 q y y s w : % @ . . . . . . . . . . . . . . . o O < t q e 7 < : e  . .1 ;       ",
"        5 ; = = = : 9 z j 0 > # . . . . . . . . . . . . . . . . . . . o = 2 7 4 < 0 ~  .@.u - ,     ",
"      - : 2 e r 4 - > 9 q - o . . . . . . . . . . . . . . . . . . . . . X @ : < 3 j %.! M y ; : >   ",
"      2 < 7 t D i e 7 < = o . . . . . . . . . . . . . . . . . . . . . . . . o % 9 K K y r e a 0 ;   ",
"    r 4 z j i K u u 0 ; O . . . . . . . . . . . . . . . . . . . . . . . . . . # 0 s s y C $.M 8 % O ",
"    0 1 q r M %.! j > @ X . . . . . . . . . . . . . . . . . . . . . . . . . . o > s -.,...d r 0 : # ",
"    2 5 0 q w t y r % o . . . . . . . . . . . . . . . . . . . . . . . . . . . . % 0 =.` C s t r < @ ",
"    ; 6 0 t r y r 1 @ . . . . . . . . . . . . . . . . . . . . . . . . . . . . . O > s j m i y 0 : $ ",
"  = * 1 6 w t y w - X . . . . . . . . . . . . . . . . . . . . . . . . . . . . . . & < 9 8 7 < = @ % ",
"  < & - , 1 5 4 3 % . . . . . . . . . . . . . . . . . . . . . . . . . . . . . . . o @ # @ # % = : 3 ",
"  < $ & % % = % = + . . . . . . . . . . . . . . . . . . . . . . . . . . . . . . . . o % < 9 r r 0 4 ",
"  < * < 7 8 4 , $ o . . . . . . . . . . . . . . . . . . . . . . . . . . . . . . . . # : t ../ F s 4 ",
"  < 9 i s z d q % . . . . . . . . . . . . . . . . . . . . . . . . . . . . . . . . . o > s +.m i y 3 ",
"  5 t t r d K e @ . . . . . . . . . . . . . . . . . . . . . . . . . . . . . . . . . X : y m r r e : ",
"& > < > 1 7 8 2 o . . . . . . . . . . . . . . . . . . . . . . . . . . . . . . . . . X = 7 7 3 3 : % ",
"r M j z $.$.T C o . . . . . . . . . . . . . . . . . . . . . . . . . . . . . . . . . X 8 =.$./ / m e ",
"e 8 q 0 q r r 9 o . . . . . . . . . . . . . . . . . . . . . . . . . . . . . . . . . X 7 y s s e 7 4 ",
"r 8 8 0 0 y C 9 o . . . . . . . . . . . . . . . . . . . . . . . . . . . . . . . . . X 7 r y y 8 5 8 ",
"9 5 8 9 q i i 1 o . . . . . . . . . . . . . . . . . . . . . . . . . . . . . . . . . X 3 0 q 8 7 8 0 ",
"4 = , < 2 2 > % . . . . . . . . . . . . . . . . . . . . . . . . . . . . . . . . . . . > 4 4 4 0 0 4 ",
"* O @ @ # # # @ X . . . . . . . . . . . . . . . . . . . . . . . . . . . . . . . . . . % % % & : = % ",
". o o @ # % $ # . . . . . . . . . . . . . . . . . . . . . . . . . . . . . . . . . . . $ @ @ @ @ @ @ ",
"X @ # & - ; - % o . . . . . . . . . . . . . . . . . . . . . . . . . . . . . . . . . . = % = - : : % ",
"o = - , 5 8 6 : o . . . . . . . . . . . . . . . . . . . . X . . . . . . . . . . . . X ; 4 r s m y 7 ",
"O : > 4 e u r < X . . . . . . . . . . . . . . . . . . . . . . . . . . . . . . . . . . 1 e H ` C y e ",
"O - , 4 e j j < . . . . . . . . . . . . . . . . . . . . . . . . . . . . . . . . . . . 1 w y r e e 4 ",
"o & ; : 3 q 9 = . . . . . . . . . . . . . . . . . . . . . . . . . . . . . . . X . . . = 2 3 > 3 3 = ",
"X = 7 5 9 e 5 = . . . . . . . . . . . . . . . . . . X X . . . . . . . . . o o . X . X - 8 5 4 7 0 4 ",
"o : q e e q 1 & o . . . . . . . . . . . . . . . . . . . . . o . . . . . o o . . X . X 3 i y y e y 0 ",
"X @ # = = & % @ o . . . . . . . . . . . . X . . . . o . o . . o o o o o o . o o X X X 3 8 w e 0 7 3 ",
"X @ - 4 9 7 6 : X . . . . . . . . . X . X . X X X X o o o o o o o o o o o o @ @ o o o < : < 4 4 < & ",
"X = 0 u V s s 6 . . . . . . . o . X X X X X X o o o o o o o @ @ @ @ @ @ @ @ @ @ @ o o : = > < : = @ ",
"o : 8 9 q q 0 > . . . . . . . . X X o o o o o o O O @ @ @ $ $ $ $ $ @ $ % % % % % @ o > 0 s 0 6 3 : ",
". & < > 2 8 4 = o . . . o . o o X o o o O O @ @ @ $ $ % % & % & & = = = = = = = = $ o % 8 0 5 4 7 4 ",
"o 5 j j ~ -.H 9 o . . X . o X o o @ o @ @ $ % % % % & = = = : = = = : : : : : : : % O 3 T 2./ T / / ",
"O < w r r u t 2 o . . X o o o o @ @ $ $ % % & = = : : : : < < < 3 < < 3 < 3 3 3 3 : @ > q s y e e 0 ",
"O < w i e w r 2 X . X X o O @ @ % % % & = = = : : < < 3 3 3 4 4 4 4 7 4 7 7 7 7 5 : % > 7 y s q e 0 ",
"X = 7 t 9 8 8 ; X . X o + @ # % % = = : : : < 3 3 4 4 5 7 7 7 7 0 8 8 0 0 0 0 0 8 3 % : 4 q e 0 7 3 ",
"o # - < < > - % . . o O @ # % = = = : > < < 4 4 7 7 7 8 8 0 0 0 0 0 0 e e e e e 0 3 & : 3 7 3 4 4 : ",
"  X o O O O O o X . o @ % % = = ; < < 3 4 5 7 8 8 0 q e e e e e e y y y y y y y y 7 & = @ % % % % % "
};
