/* XPM */
static char *_f7948c45e3443cb8fde33da2d07158cw4emMTuTyyhKTeF4[] = {
/* columns rows colors chars-per-pixel */
"50 50 160 2 ",
"   c None",
".  c #667C78",
"X  c #7F7B77",
"o  c #B75F5D",
"O  c #9F7979",
"+  c #957C7D",
"@  c #BB6965",
"#  c #B7706D",
"$  c #D25D5E",
"%  c #FF4646",
"&  c #FE4947",
"*  c #FD4B4A",
"=  c #FE534D",
"-  c #E25656",
";  c #FE5454",
":  c #FD5C52",
">  c #FE5C5B",
",  c #DE765A",
"<  c #FE6D4F",
"1  c #FE6758",
"2  c #FE6A5A",
"3  c #FE7451",
"4  c #FE715D",
"5  c #FE7E53",
"6  c #FE5F60",
"7  c #C16667",
"8  c #C06868",
"9  c #D86D65",
"0  c #F76666",
"q  c #FF6666",
"w  c #FE6B65",
"e  c #FE7364",
"r  c #FE7D65",
"t  c #FE7168",
"y  c #FE7B6B",
"u  c #55837D",
"i  c #59827D",
"p  c #818179",
"a  c #FE945A",
"s  c #FDA85C",
"d  c #FDB45F",
"f  c #FE8464",
"g  c #FE8963",
"h  c #FE896B",
"j  c #FE856D",
"k  c #FE9461",
"l  c #FE9E61",
"z  c #FE916E",
"x  c #FE9C6D",
"c  c #E2997A",
"v  c #FE9671",
"b  c #C3A47C",
"n  c #FEA260",
"m  c #FDAA61",
"M  c #FEA26C",
"N  c #FEA96E",
"B  c #FDB560",
"V  c #FDB962",
"C  c #FFB768",
"Z  c #FDBB6D",
"A  c #FEA479",
"S  c #FEAC7D",
"D  c #FEB270",
"F  c #FDBF71",
"G  c #FDC175",
"H  c #598680",
"J  c #5C8E8C",
"K  c #5F918F",
"L  c #6F8A88",
"P  c #618B85",
"I  c #7C8C8C",
"U  c #6D948B",
"Y  c #6A9187",
"T  c #75948D",
"R  c #758F90",
"E  c #639797",
"W  c #699595",
"Q  c #6E9893",
"!  c #659999",
"~  c #6B9C9C",
"^  c #729492",
"/  c #7F9491",
"(  c #74A3A3",
")  c #7BA7A7",
"_  c #00CBFF",
"`  c #0CCFFF",
"'  c #12D0FF",
"]  c #24D3FE",
"[  c #2DD5FE",
"{  c #32D6FF",
"}  c #3BD8FF",
"|  c #4CDBFD",
" . c #53DDFD",
".. c #5DDDFC",
"X. c #77DFF3",
"o. c #808989",
"O. c #BE8D8D",
"+. c #B09696",
"@. c #B39798",
"#. c #B8A79C",
"$. c #92ACA3",
"%. c #96B2AB",
"&. c #8DB3B3",
"*. c #92B6B6",
"=. c #93B7B8",
"-. c #95BBBB",
";. c #9ABABA",
":. c #C78A8A",
">. c #D6B88B",
",. c #FCA385",
"<. c #EABF8B",
"1. c #FEB381",
"2. c #FEBC84",
"3. c #FFB68A",
"4. c #F6B985",
"5. c #DEC18F",
"6. c #E3C18C",
"7. c #FEC28A",
"8. c #FECD8E",
"9. c #EBC198",
"0. c #FECE90",
"q. c #FEC49B",
"w. c #FED194",
"e. c #FED39B",
"r. c #DED9B8",
"t. c #D4D1B9",
"y. c #F7CCA9",
"u. c #FCD5A2",
"i. c #E9D8B7",
"p. c #E7D8B9",
"a. c #F3D4B2",
"s. c #FADEB6",
"d. c #F0DCB6",
"f. c #F8E1BD",
"g. c #A3C3C3",
"h. c #AAC6C6",
"j. c #B5CECE",
"k. c #BBD1D1",
"l. c #B5DFD9",
"z. c #A9E0DF",
"x. c #9AE3ED",
"c. c #A5E3E6",
"v. c #B1E5E5",
"b. c #C4DAC6",
"n. c #DFDFC5",
"m. c #C1D6D6",
"M. c #C6D8D8",
"N. c #CCDDDD",
"B. c #D3DFDF",
"V. c #D0E0CE",
"C. c #DBE3CB",
"Z. c #D6E9DF",
"A. c #E6E3CB",
"S. c #F7E2C0",
"D. c #CEEAE4",
"F. c #DBE7E7",
"G. c #E5E5E5",
"H. c #EAEAEA",
"J. c #EDF3F3",
"K. c #FEFEFE",
/* pixels */
"                                                                                                    ",
"                                                                                                    ",
"                                                  % % %                                             ",
"                                                  % % % %                                           ",
"                                                  % % % %                                           ",
"                                q q q q q q q q q 6 > ; * % % % % % %                               ",
"                        q q q q q q q q q q q q q q q q q ; * % % % %                               ",
"                      q q q q q q q q q q q q q q q q q q q > % % %                                 ",
"                  q q q q q q q q q q q q q q q q q q q q q q ; %                                   ",
"                q q q q q q q q q q q q q q q q q q q q q q q q * % %                               ",
"                q q q q q q q q q q q t q q q q q q q q q q q q ; % % %                             ",
"              q q q q q q q q q q q q q q q q q w q q q q q q q 6 * % %                             ",
"              q q q q q q q w q q q q q q q q q q q q q q q q q q * % % %                           ",
"              q q q q q q q q q q q q q q q q q q q q q q q q q q ; % % %                           ",
"              q q q q q q w q q q q q q q q q t q q q q q q q q q ; % % % %                         ",
"              q q q q q q q q q q t q q q q q q q q q q q q q q w ; % % % %                         ",
"              q q q q q q q q q q q q q q q q q q q q q q q q q q > % % % %                         ",
"              q q q q q q q q w q q q q w q q q q q q q q q q q q ; % % % %                         ",
"              q q q q q q q q e q q q q q q q q w q q q q q q q q ; % % % %                         ",
"              q q q q q q q q h y q q q q q q q q q q q q q q q q * % % % %                         ",
"              q q q q q q q q n z q q q q q q q q q q w q q q q > * % * % %                         ",
"                q w w e t j M Z Z N x z h r e e e q t w t q q 0 : & % % % %                         ",
"                e M 2.y.d.u.8.8.w.0.0.8.8.0.a.a.7.D m m a w q r s 5 * % % %                         ",
"                y 2.C. .{ x.e.8.0.8.0.8.w.z.} | D.e.G V n q q h V d 3 % % %                         ",
"                y y.X._ _ ] n.8.8.0.0.8.r.] _ _  .S.7.V a q q g d V a & & %                         ",
"                y 3..._ _ ' M.0.8.0.0.0.b.` _ _ { A.8.G k q q f B B a & % %                         ",
"                q ,.c.` _ | d.0.w.8.8.8.p.] _ _ ..f.8.G g q q e m d < % % %                         ",
"                q y y.v.x.n.0.0.w.8.8.8.w.l.| ..F.e.8.G g q q q a 3 % % % %                         ",
"                q q y 3.e.w.0.0.8.8.0.0.8.e.s.s.e.8.8.C f q q q > % % % % %                         ",
"              q q q q > 4 z A S 4.6.6.6.6.6.6.6.>.>.b , : q q q > * % % % % %                       ",
"              q q q q = % % * @ p T %.$.Y U U Q Q P u . @ q q q q ; % % % * % %                     ",
"              q q q 1 & % % o i J ! =.*.E ! ! ! W H u u X 0 q q q ; % % % % % %                     ",
"                q q ; % % % # P K ! ( ! ! ! ! ! E H H Q #.0 q q q ; % % * % % % %                   ",
"                  * % % % % ,.t.%.( k.) ! ! E ! ! L #.i.e.r ; > ; % % % % % % % %                   ",
"                    % % % 2 7.e.9./ ( ! E E E E ! + e 8.0.1.: % % % % % & % % % %                   ",
"                    % % : S 8.8.h O.=.=.*.&.*.=.-.:.* S 0.0.A * % % % % % % % %                     ",
"                    % * A 8.0.2.: @.g.h.h.h.h.h.g.+.% r 8.0.8.f % % % % % % % %                     ",
"                      h 8.8.0.z 8 W E E W E E ! ! W @ = 1.0.8.2.; % % % % % %                       ",
"                      w.0.0.1.9 R ! ! ! ! ! ! ! ! ! ^ $ 4 7.0.8.1 % % % %                           ",
"                      8.8.0.c I ! ! ! ! ! ! ! ! ! ! ! I $ 2 A z = % % %                             ",
"                              ! ! ! ! ! ! ! ! ! ! ! ! E O % * *                                     ",
"                            &.~ E ! ! ! E ! ! ! ! E E ( ;.                                          ",
"                              k.-.) ~ ! ! ! ! ! ~ ) ;.M.                                            ",
"                                H.G.B.M.k.j.m.N.F.J.                                                ",
"                                G.G.H.H.    K.K.K.K.                                                ",
"                                G.G.G.G.    K.K.K.K.                                                ",
"                                G.G.G.G.      K.K.K.                                                ",
"                                G.G.G.        K.K.K.                                                ",
"                                  G.G.          K.K.                                                ",
"                                  G.              K.                                                "
};
