/* XPM */
static char *Girl11644354469[] = {
/* columns rows colors chars-per-pixel */
"50 50 160 2 ",
"   c None",
".  c #667C78",
"X  c #7F7B77",
"o  c #B75F5D",
"O  c #9F7979",
"+  c #957C7D",
"@  c #BB6965",
"#  c #B7706D",
"$  c #D25D5E",
"%  c #FF4646",
"&  c #FE4947",
"*  c #FD4B4A",
"=  c #FE534D",
"-  c #E25656",
";  c #FE5454",
":  c #FD5C52",
">  c #FE5C5B",
",  c #DE765A",
"<  c #FE6D4F",
"1  c #FE6758",
"2  c #FE6A5A",
"3  c #FE7451",
"4  c #FE715D",
"5  c #FE7E53",
"6  c #FE5F60",
"7  c #C16667",
"8  c #C06868",
"9  c #D86D65",
"0  c #F76666",
"q  c #FF6666",
"w  c #FE6B65",
"e  c #FE7364",
"r  c #FE7D65",
"t  c #FE7168",
"y  c #FE7B6B",
"u  c #55837D",
"i  c #59827D",
"p  c #818179",
"a  c #FE945A",
"s  c #FDA85C",
"d  c #FDB45F",
"f  c #FE8464",
"g  c #FE8963",
"h  c #FE896B",
"j  c #FE856D",
"k  c #FE9461",
"l  c #FE9E61",
"z  c #FE916E",
"x  c #FE9C6D",
"c  c #E2997A",
"v  c #FE9671",
"b  c #C3A47C",
"n  c #FEA260",
"m  c #FDAA61",
"M  c #FEA26C",
"N  c #FEA96E",
"B  c #FDB560",
"V  c #FDB962",
"C  c #FFB768",
"Z  c #FDBB6D",
"A  c #FEA479",
"S  c #FEAC7D",
"D  c #FEB270",
"F  c #FDBF71",
"G  c #FDC175",
"H  c #598680",
"J  c #5C8E8C",
"K  c #5F918F",
"L  c #6F8A88",
"P  c #618B85",
"I  c #7C8C8C",
"U  c #6D948B",
"Y  c #6A9187",
"T  c #75948D",
"R  c #758F90",
"E  c #639797",
"W  c #699595",
"Q  c #6E9893",
"!  c #659999",
"~  c #6B9C9C",
"^  c #729492",
"/  c #7F9491",
"(  c #74A3A3",
")  c #7BA7A7",
"_  c #00CBFF",
"`  c #0CCFFF",
"'  c #12D0FF",
"]  c #24D3FE",
"[  c #2DD5FE",
"{  c #32D6FF",
"}  c #3BD8FF",
"|  c #4CDBFD",
" . c #53DDFD",
".. c #5DDDFC",
"X. c #77DFF3",
"o. c #808989",
"O. c #BE8D8D",
"+. c #B09696",
"@. c #B39798",
"#. c #B8A79C",
"$. c #92ACA3",
"%. c #96B2AB",
"&. c #8DB3B3",
"*. c #92B6B6",
"=. c #93B7B8",
"-. c #95BBBB",
";. c #9ABABA",
":. c #C78A8A",
">. c #D6B88B",
",. c #FCA385",
"<. c #EABF8B",
"1. c #FEB381",
"2. c #FEBC84",
"3. c #FFB68A",
"4. c #F6B985",
"5. c #DEC18F",
"6. c #E3C18C",
"7. c #FEC28A",
"8. c #FECD8E",
"9. c #EBC198",
"0. c #FECE90",
"q. c #FEC49B",
"w. c #FED194",
"e. c #FED39B",
"r. c #DED9B8",
"t. c #D4D1B9",
"y. c #F7CCA9",
"u. c #FCD5A2",
"i. c #E9D8B7",
"p. c #E7D8B9",
"a. c #F3D4B2",
"s. c #FADEB6",
"d. c #F0DCB6",
"f. c #F8E1BD",
"g. c #A3C3C3",
"h. c #AAC6C6",
"j. c #B5CECE",
"k. c #BBD1D1",
"l. c #B5DFD9",
"z. c #A9E0DF",
"x. c #9AE3ED",
"c. c #A5E3E6",
"v. c #B1E5E5",
"b. c #C4DAC6",
"n. c #DFDFC5",
"m. c #C1D6D6",
"M. c #C6D8D8",
"N. c #CCDDDD",
"B. c #D3DFDF",
"V. c #D0E0CE",
"C. c #DBE3CB",
"Z. c #D6E9DF",
"A. c #E6E3CB",
"S. c #F7E2C0",
"D. c #CEEAE4",
"F. c #DBE7E7",
"G. c #E5E5E5",
"H. c #EAEAEA",
"J. c #EDF3F3",
"K. c #FEFEFE",
/* pixels */
"                                                                                                    ",
"                                                                                                    ",
"                                            % % %                                                   ",
"                                          % % % %                                                   ",
"                                          % % % &                                                   ",
"                              % % % % % % * ; > q q q q q q q q q q                                 ",
"                              % % % % % ; q q q q q q q q q q q q q q q q q                         ",
"                                % % & > q q q q q q q q q q q q q q q q q q q                       ",
"                                  % 6 q q q q q q q q q q q q q q w q q q q q q q                   ",
"                              % % * q q q q q q q q q q q q q q w q q q q q w q q q                 ",
"                            % % % > q q q q q q q q q q q q q q q q q q q q q q q q                 ",
"                            % % % 6 q q q q q q q q q q q q q q q q q w q q q q q q q               ",
"                          % & % * q q q q q q q q q q q q q q q q q q q q q q q q q q               ",
"                          % % % ; q q q q q q q q q q q q q q w q q q q q q q q q q q               ",
"                        % % % % ; q q q q q q q q q w q q q q q q q q q q q q q q q q               ",
"                        % % % % > q q q q w q q q q q w q q q q q q q q q q q q q q q               ",
"                        % % % % ; q q q q q q q q q q q q q q q q q q q q q q q q q q               ",
"                        % % % % ; q q q q q q q q q q q w q q q q q q q q q q q q q q               ",
"                        % % % % ; q q q q q q q q q q q q w q q q w e q q q q q q q q               ",
"                        % % % % * q 0 q q q q q q q q q w q q q q r g q q q q q q q q               ",
"                        % % % % * 6 q q q q q q q q q q q q q q q k s q q q q q q q q               ",
"                        % % % % % > q q q w w w w t e e y j z x N Z Z x j y t q w q                 ",
"                        % % % & 5 s r q q l m m C 3.a.a.0.8.8.8.8.8.8.8.e.i.y.F N w                 ",
"                        % % % 5 B B g q w l V G e.D.| } z.e.8.0.0.0.0.u.x.{  .C.2.y                 ",
"                        % % % a d d f q q k V 8.S. ._ _ ] r.0.0.0.8.8.p.] _ _ X.q.y                 ",
"                        % % % a d d r q q k F 8.A.{ _ _ ` b.0.0.0.8.0.N.' _ _ ..q.t                 ",
"                        % % % < d d e q q g G 8.S..._ _ [ p.0.0.0.0.8.d.| _ ` c.,.q                 ",
"                        % % % % 3 a q q q f Z 8.e.F...| l.w.0.0.0.0.8.w.A.x.v.y.y q                 ",
"                        % % % % % ; q q q f C 8.0.w.s.f.w.0.0.0.0.0.0.0.0.e.3.y q q                 ",
"                      % % % % % & q q q 0 : , b >.6.6.6.6.6.6.6.<.2.1.A z 4 > q q q q               ",
"                    % % % % % % ; q q q 0 # i i i Q Q U Y Y $.%.U i @ * % % ; q q q q               ",
"                    % % % & % % ; q q q 2 + i u i W ! ! ! ! &.*.E J . o % % & q q q q               ",
"                  % % & & % % % ; q q q 0 #.^ i H E ! ! ! ! ! ( ! K P # % % % ; q q                 ",
"                  % % % & & % % & = ; ; f u.i.#.L ! ! ! ! ! ( m.) %.t.,.% % % % &                   ",
"                  % % % % % & % % % % ; 1.0.8.t p E E E E E ! ( / 9.0.7.1 % & %                     ",
"                    % % & % & % % % * A 0.0.S & :.-.*.*.&.&.*.=.O.j 0.0.1.: % %                     ",
"                    % % % % % & % % f 0.0.0.r % @.g.h.h.h.h.h.g.@.: 3.w.8.A * %                     ",
"                      % % % % % % = 1.0.0.1.* @ Q ! W ! E ! E ! ! @ v 0.8.8.h                       ",
"                          % % % % 1 8.w.7.4 9 R ! ! ! ! ! ! ! ! ! R 9 1.8.0.0.                      ",
"                            % % % = z A 2 $ I E ! ! ! ! ! ! ! ! ! E o.c 0.8.8.                      ",
"                                    & * % O E ! ! ! ! ! ! ! ! ! ! ! E                               ",
"                                          ;.( E ! W ! ! ! ! ! ! ! E ~ &.                            ",
"                                            M.;.) ~ ! ! ! ! ! ~ ) *.k.                              ",
"                                                J.F.N.m.j.k.M.B.G.H.                                ",
"                                                K.K.K.K.    H.H.G.G.                                ",
"                                                K.K.K.K.    G.G.G.G.                                ",
"                                                K.K.K.      G.G.G.G.                                ",
"                                                K.K.K.        G.G.G.                                ",
"                                                K.K.          G.G.                                  ",
"                                                K.              G.                                  "
};
