/* XPM */
static char *tri9_501644473803[] = {
/* columns rows colors chars-per-pixel */
"50 50 12 1 ",
"  c #E9EAEC",
". c #EBECEE",
"X c #ECEDEF",
"o c #EAEBED",
"O c #E9EBEC",
"+ c #E8E9EB",
"@ c #EAEBEC",
"# c #EBECED",
"$ c #EAECED",
"% c #EDEEF0",
"& c #ECEDEE",
"* c white",
/* pixels */
" .....XX......ooo.ooooo..oo...oooooo..ooo....o.o.o",
"o.oo..X.X.......oo....o.ooo...o...ooo..oo.... oooo",
"ooo.o.....X.o...ooooooO  o..oo ooo  oooo oo o o oo",
"oo..o..o.o..oo...ooo..oo.o.ooooo .. oo..oo.ooooo +",
"o....o..ooo.......X.oo..ooooo.o.o.o......o...oo...",
"o..o....o...XXX.....o..X.....oo.o..oo........XX.X.",
"oooooo.o..ooo.o.....o.o....oo  .ooooo.oo..XX.X....",
"ooo o o.o. o.ooo .@o oooo..#oo .o..oo....o....o.o.",
" ooo..........o.ooo.o oooo  oo..ooo  ooooo..X...oo",
"...XX.o..o.X.Xooo....ooo. o.oo..X.o.oo.oo.........",
"..X....XX......ooo...oo..o.X.....X...XX.....ooo.o.",
"o.....X....XX..oo.XXX...oo..o.XX.X.ooX..ooXX....oo",
".o.ooo.........oo.XXX...oo...XXX......X.ooX...o.oo",
"oo.oo....X.oX.#ooo...o....$.oo....oooo.ooo.o..o...",
".o.oo...XXX..oooooo.oo. ..ooo .X...oo..oooXX.X....",
"oo.ooo...X. o.oo.X..o.Xo..ooo o....oo.oooo...X.oo.",
"oo.o..XXXXXo.X..o....oooo.oo.oo.ooo oo. oo.o..oo..",
"oo..XoooX.X.....o.o.. ooo .oooo.o   oo.o  ...X.o..",
". ..ooo...ooo...o.o..o.o.o..ooo...oooo..o..X.X.ooX",
".o.X....X..o.oo  o..Xooo....ooo.X.ooo.X..XX%%Xoo..",
"........X.oo..ooo.o...o..oo.oo o.o.ooo...XXX%Xoo..",
"X.......X.oo.o.o oooo.o.....o.ooooo....o.XXX......",
".o..oo....oo.oooo..oX.oo......oooooo .X......X.XX.",
"oo.oo.Xoo.  o.....X...oo.o...o o oooooooooo oo oo.",
"  ooo..oooo..XX.o.X.X.o..o..oooo oooooooo.....oo.X",
"o o.....ooo.o..oo.....oo...o.oo.oo.ooooooX....#@.X",
"ooo....X.oo o...o..X.oo.oo..oo ooooo o.o...XXX.o..",
"...oo......ooo.. oo..oo..o.oooooo ooo  o .X....o.o",
"o oo .X...ooooo.o.o#. ooo..ooo o  .o.oo. ..oo.X...",
"oo..oooo.oooo...o.o..ooo..o....o o...o..o.XXX.X.XX",
"o..ooo..Xo...X.XoX.ooo..X....X.oo..oo.Xo ...Xo&...",
"o....ooo.o.%...X.....o@#.o.X... ooooo..oo.o..o.&.X",
"o o..ooooo...X...oo.ooo..o..o.ooooo..o..o.oooo.X..",
".oo.oo.o....o.....oo.o ..o..o..oXoo....Xoo.o....oo",
"....X.X.....o......X.o o..ooo..o.oo..o....Xo.ooooo",
".o...o.o....o.....XX.o......o.oo..oo......X..oooo.",
"X...o.oo.................o....o....oXXX%.XX...oo .",
"....o.....X...X.o.....o..ooo..oooo o...XXX.X..ooo.",
"....ooo..o..XXXXXX.X.........X..ooo.X.XXoo..oooooo",
"...ooooooooo..oo...%...........ooooo.oo.ooooo.o...",
"...ooo....ooo.ooo..Xoo.....o..ooooo.XX...ooo.ooooo",
".........oooo... ..o......ooXXoo....XX.X%..oooo.oX",
".o....oo.oo.o..oo.X..oo.......ooo..$X..X....ooo.o.",
"....ooo..oo.o&.oo..o  ......#&.oo..#X%XXX....o$..X",
"ooo oooooo ooO .oooo ooo....oo.oo....X..XX.XXooo  ",
"o.ooooooo.oooo..oooo oo..oo..oooX..oo.ooo.....o oo",
"o.oooo....oo.o.XXXXXooo....X..oo...ooXo oo....oo..",
" .oo.........XXX.XXXo......X..o oo..o.oo..X%XX...X",
" ..o  ..X....XX...X.ooooooo.o.o    oooo +o....oo.X",
"o.oooo..XX.o...X.ooo  o..o...ooooo  oooo o..X.ooX."
};
