/* XPM */
static char *_ad55567f1074024eac8a8bd8feeb0f08DaGKaQyLDS8ZlzZ[] = {
/* columns rows colors chars-per-pixel */
"50 50 143 2 ",
"   c #33271F",
".  c #34291E",
"X  c #372D24",
"o  c #3A2E24",
"O  c #392F28",
"+  c #3D3126",
"@  c #3D332A",
"#  c #402F28",
"$  c #403227",
"%  c #42352C",
"&  c #44392E",
"*  c #483A2E",
"=  c #423730",
"-  c #483730",
";  c #453B32",
":  c #4A3D34",
">  c #4C3F39",
",  c #513F38",
"<  c #464036",
"1  c #4B4136",
"2  c #474338",
"3  c #4D433A",
"4  c #4E493E",
"5  c #514237",
"6  c #53463E",
"7  c #51463D",
"8  c #55443C",
"9  c #55443D",
"0  c #54463D",
"q  c #54453E",
"w  c #56453E",
"e  c #55473E",
"r  c #55463F",
"t  c #54473F",
"y  c #57463F",
"u  c #52453C",
"i  c #58463A",
"p  c #50483D",
"a  c #51493E",
"s  c #51483F",
"d  c #50493F",
"f  c #52483E",
"g  c #52483F",
"h  c #53493F",
"j  c #524A3F",
"k  c #56483F",
"l  c #54493E",
"z  c #594A3F",
"x  c #4F4B40",
"c  c #564740",
"v  c #534740",
"b  c #524940",
"n  c #534940",
"m  c #534B40",
"M  c #534A41",
"N  c #524B41",
"B  c #554840",
"V  c #564940",
"C  c #574940",
"Z  c #574841",
"A  c #544A40",
"S  c #544A41",
"D  c #554B41",
"F  c #574A41",
"G  c #544943",
"H  c #554B42",
"J  c #574A42",
"K  c #534C42",
"L  c #544C41",
"P  c #554C43",
"I  c #564C42",
"U  c #564C43",
"Y  c #574D43",
"T  c #564D44",
"R  c #574D44",
"E  c #564F45",
"W  c #554B42",
"Q  c #594841",
"!  c #584A41",
"~  c #584942",
"^  c #584B42",
"/  c #594B42",
"(  c #594A43",
")  c #5B4A42",
"_  c #5B4A43",
"`  c #5A4C43",
"'  c #594C44",
"]  c #5A4D44",
"[  c #5B4D44",
"{  c #5B4C45",
"}  c #5A4D45",
"|  c #584E44",
" . c #584E45",
".. c #594F45",
"X. c #594F46",
"o. c #5B4E46",
"O. c #5D4C45",
"+. c #5C4E45",
"@. c #5C4F46",
"#. c #5C4F47",
"$. c #594D44",
"%. c #5B4E48",
"&. c #575046",
"*. c #585147",
"=. c #5A5046",
"-. c #5A5047",
";. c #5A5247",
":. c #5E5047",
">. c #5B5047",
",. c #5B5148",
"<. c #5B5249",
"1. c #5D5048",
"2. c #5C5248",
"3. c #5C534A",
"4. c #5D534A",
"5. c #5B544A",
"6. c #5E544A",
"7. c #5F554B",
"8. c #5E574D",
"9. c #5D5249",
"0. c #604F48",
"q. c #635245",
"w. c #605249",
"e. c #60514A",
"r. c #60534B",
"t. c #65544D",
"y. c #64564D",
"u. c #61554C",
"i. c #64594F",
"p. c #6C5A4E",
"a. c #695650",
"s. c #6A5751",
"d. c #665950",
"f. c #675950",
"g. c #655A51",
"h. c #6B5852",
"j. c #685B52",
"k. c #6C5B54",
"l. c #6B5D54",
"z. c #6B5E55",
"x. c #6B5C53",
"c. c #705E52",
"v. c #6E6158",
/* pixels */
"@ & @ < < @ & @ * @ < & + @ 2 5 4 j & < j j p 1 & * ; < < < 1 1 : = = O % : > > , 9 s.s.s.s., - = = ",
"; < @ 2 1 < p 2 < & & < < 2 j j j ;.* 1 :.j ` 3 < 1 1 3 l ` :.6.T b 3 > , 9 u > i O.k.s.a.s., : > : ",
"< < + < < < p p 2 & & < 1 j 5.j ;.8.3 j u.=.-.j 1 1 < ; 1 3 j I 2 3 : : , u > - - > ( %.0.t.v 5 G v ",
"< * X @ < @ p 5 < @ & < < 5 j 4 p z < 3 j 3 p 2 ; & & & @ * : 1 > : : : > u u > - = 9 9 ~ 0.Q ~ v > ",
"1 1 + * 1 < p 1 ; * < 1 & ; 1 : * 3 @ & ; @ @ @ @ @ @ ; 2 1 j u < x T N 4 T 5.5.C 3 C b b ( 3 u G x ",
"2 < @ < 5 < p 1 3 1 3 1 @ @ ; ; * 4 & * < @ @ + @ @ & ; < 1 1 1 < 4 x 1 : > 4 x 3 - > : : 3 - 3 G v ",
"1 1 + * 5 1 p 1 j 1 3 1 & ; 3 : 1 ` 2 3 3 & * & & @ @ & @ & & ; ; 2 < ; ; ; @ @ : + @ = : > = u = @ ",
"1 1 + < 4 p z l ` 1 < < ; 1 0 : < j 1 3 3 @ & & & & & & ; 1 j N x x x x &.&.3 @ 5.4 G N b c 4 E E 3 ",
": ; % % 1 ) u % u : % o % : : * < ; & ; & @ @ & & @ & * 2 3 p 4 K x < 2 5.8.4 : 1.T u 4 u  . .%.C 3 ",
"& % % % & : ; % : & # % & : : % & @ + + + X X + & @ @ & * < ; & < 2 < 2 5.8.N < N 4 u N E  . . .C 3 ",
"k C ) k k ) k u 0 5 : * : 1 : : &.3 * & & @ @ @ 2 < * ; 3 p 3 * = 3 1 4 &.5.4 > 4 c  .1.%.@.( (  .5 ",
"C ) C k z @.` 0 j.w.c 0 0 8 8 3 v.;.3 3 2 < ; & I 3 < 3 j I p < ; b x 1 K N : = N ( t.w.%.C c ~ @.u ",
"u 1 : , z @.) 1 k.y.@.0 c ) ) ` v.` ; & * ; * & 3 : & 1 k j u ; : E N > 3 , = % c ~ O.( Q 9 9 9 _ 8 ",
"8 1 : , ) w.) , :.) 0 u u C  .-.i.j ; ; < 2 1 ; 1 < ; 1 j I u < 1 %.%.3 u c , > u u v c , Q Q _ 0 1 ",
": : - % : 5 : % u 5 5 u 0 C `  .p.=.3 < 2 3 3 4 : ; < 1 p j 3 < : ( O.> c ~ , : , , > - , , , 9 : $ ",
"5 5 3 : : : - % 3 5 c C ) ` ) C i.j 1 < * & & & @ @ @ & & & & $ @ 3 u : > 3 % o # - # # - % - % % $ ",
"1 < * * 5 : % % u ( Z v ( v q v 8.&.8.&.E N ; E G x G K <.&.K x E 9.G 9.T @ : : > c - : 9 > , 9 1 * ",
"$ @ + * * : : ; > Z v , v > = > 5.I 5.<.5.K : 5.&.K K K &.K u 4 b %.b 5.T @ > 3 > ) - : , : , u * % ",
"$ $ $ * 1 5 5 1 ( %.( v v > = > &.I &.&.5.E < <.&.E E E <.&.E N G E E 8.( : b T ( 9.> > c u ~ ~ 1 * ",
"* * % & 1 5 1 : e.g.%.G v > = = 4 2 N 2 N x @ x x x N G K K E K b E E 5.x > b <. .e., u ( 9 ( ( i 5 ",
"+ + + $ & * * : 9.y.1.T G > = = ; = : @ 2 3 @ 1 < 1 3 3 3 3 4 3 : 2 x : = : N 8.%.e.> > 9 , u , * * ",
"o o + $ & * 1 5 %.t.9.( G > = = : ; < ; 3 G > T K G G x 3 < 1 < ; ; > @ = N  .g.e.y., > 9 : - % * $ ",
"$ $ < * : u C  .E y.t.9.e.v > = 4 1 3 < x 5.G 8.5.5.%.G x 3 1 3 1 3 K ; : 8.9.g.t.y.3 u c > - % $ $ ",
"$ $ $ < 1 3 ) ( T t.y.e.t.G = > 3 1 1 @ 3 E 4 <.E %.T G 2 : : 2 b x 5.: 1 g.E &.C %.: > c : - % & + ",
"5 i j z q.p.p.;.9.k.( y.c T v v N c : 4 4 1  . .N %.3 4 : = 4 3 E b T 3 x g.g.g.~ > : u 9 v u , i 1 ",
"* < 5 5 p a i 2 : u = 3 = = = = 3 4 @ : > ; u u > b > 4 1 : T N E G %.3 b g.t.g.( , : , ~ O.( _ ` i ",
"< 1 i j i p 2 < : 3 % u - > > > u 3 = : : = > > 1 C u C u > C b x 3 E 3 3 <.%.<.c : # - u ~ %.%.k 1 ",
"5 i z z j z z i C %.> e.T ( %.%.b c - 3 5 : u 3 u %.C %.c : 3 : G T 8.x b 9.%.8.T > - > ~ %.0.e.:.z ",
"j z z j p 5 p z ( 9.> e.G T ( ~ ~ T : c ( u C u u ( u c 3 % : = + @ : O X = & = % X X X % - = - : & ",
"z j z z i 2 p z ( %.: %.v v v v c c : c  .C  .u ; u > > > % : : 3 < x : ; N 4 u c u , , c c O.%.t.w.",
"7.z p i i 5 p z ( %.: %.( v v v u 5 - b %.) %.c 3 c > 5 : = 3 > 1 : x @ ; N 1 3 c 9 v , u u ) w.t.w.",
"j 5 1 p i p p i ~ Z = ( v v > u > > = b %.T 1.c e.y.T c 3 - u 3 < ; > + - N 3 > 3 > > > - ; u w.@. .",
"< 1 1 q.p i p p z z * >.k u 3 > > : : < < > > : 4 3 4 3 ; = 1 ; ; O @ @ O ; 2 x = G 2 < > 2 > G N 4 ",
"* $ $ 1 o * & $ 1 2 + l 1 3 > u < 1 1 3 3 x b u % % : > = ; 1 : @ O ; @ O @ @ @ @ 2 = O O = O < @ @ ",
"i j i j * j j a 1 a < z > = - : : < > 4 b b b b : : G <. . .8.1.G < E G v G x 3 %.%.2 = > 2 > 2 : ; ",
"< i a q.2 p.p.;.z z < z v > ; = @ = ; < 3 3 3 3 @ : C 8. . .8.%.G @ x x v T x G G &.> = > 4 > > ; ; ",
"$ < * 5 * q.p.i.%.%.> %.G %.v > = : ; : : > < ; @ @ b 9.%.<.1.E E @ > = = x 3 G G G > @ = > < < : : ",
"5 5 * < + ;.i.c.h.t.- ( ( r.{ 3 < < : : : 1 < : ; < E g.8.y.g.8.z.> > x ; v x x G G v = 2 > < = 1 2 ",
"* * + * o 5 L ;.g.g.> w > v 3 = < ; ; ; @ : : : @ ; K 8.<.%.%.T 8.@ ; @ @ @ @ > = v < O = @ O @ @ @ ",
"$ $ $ p * 2 5 i b ( O - O = = = @ @ O O @ @ & = 3 3 5.g.<.E E u E @ = ; = > ; = @ = 2 @ = = @ > + O ",
"+ 1 p z + * : : : > - c : G : v 4  .: u <.N u 1 1 <.t.8.y.<.4 3 3 : C 0 % : : + @ > : % - : : : + + ",
"$ 1 5 l . $ % & - = O c 3 ( v Z : N = 1 C 4 4 > 4 <.5.%.8.%.u u 0 : 5 i : : 5 $ = 3 : % : 5 : : X X ",
"< 5 5 5 . $ $ % : - @ > 3 G = = 2 N = 1 C N N x b  .N b <.<.N b 5 % * 5 : * % $ @ * % $ * * # + + + ",
"1 i 5 l + * % % u > : u > > = : @ @   X = = : : = : @ X : : ; % : % * 5 : $ o $ % % % $ * $ o o % & ",
"< 5 5 i $ 1 * - > > q > q > v { 4 C = 1 T T 8.1.<.%.3 1 E 9.%.E 5 : 5 z i $ $ * * 5 : : : * $ : % % ",
"* < 1 i & 5 < & - - > - > O v { > u @ = 3 4 C N 4 3 ; @ 1 u 4 1 0 ) z 8 5 % $ i * 5 * * : * % * % % ",
"$ < < i % 3 : - : = q = - O = > u E ; : T b  .C 4 b : = 1 4 4 3 l >.k 1 5 % $ 5 * * * * i 5 % * % & ",
"1 1 < 5 % u 3 : > - v = q O > = 3 b @ % 4 > 4 3 > 4 : % > 3 : > z q.l & : * $ * 5 : : z x.q.i * & & ",
"$ 1 < 1 o p 5 < * $ < < $ + & p 5 5 & @ 2 4 1 1 1 1 1 O 4 2 N 4 :.j 1 ; 1 & @ < 1 * q.p.c.c.i i : * ",
"$ 1 1 1 o 5 1 < < < * < & + & p 4 2 & & 3 j 1 3 = % @ X : ; : : I 3 & & ; @ $ 1 * * q.p.p.p.i i 1 ; "
};
